<?xml version="1.0" standalone="no"?><!DOCTYPE svg PUBLIC "-//W3C//DTD SVG 1.1//EN" "http://www.w3.org/Graphics/SVG/1.1/DTD/svg11.dtd"><svg t="1508745896866" class="icon" style="" viewBox="0 0 1024 1024" version="1.1" xmlns="http://www.w3.org/2000/svg" p-id="1003" xmlns:xlink="http://www.w3.org/1999/xlink" width="200" height="200"><defs><style type="text/css"></style></defs><path d="M121.744 391.757c-65.493 0-118.589 53.073-118.589 118.59 0 65.492 53.096 118.565 118.59 118.565s118.589-53.073 118.589-118.566c0-65.515-53.097-118.59-118.59-118.59z m378.23 0c-65.493 0-118.59 53.073-118.59 118.59 0 65.492 53.097 118.565 118.59 118.565s118.59-53.073 118.59-118.566c0-65.515-53.097-118.59-118.59-118.59z m401.871 0c-65.493 0-118.59 53.073-118.59 118.59 0 65.492 53.097 118.565 118.59 118.565s118.59-53.073 118.59-118.566c-0.002-65.515-53.097-118.59-118.59-118.59z" p-id="1004" fill="#515151"></path></svg>